<?xml version="1.0" encoding="utf-8"?>
<!-- Generator: Adobe Illustrator 24.1.2, SVG Export Plug-In . SVG Version: 6.00 Build 0)  -->
<svg version="1.1" id="Layer_1" xmlns="http://www.w3.org/2000/svg" xmlns:xlink="http://www.w3.org/1999/xlink" x="0px" y="0px"
	 viewBox="0 0 126.37 104.82" style="enable-background:new 0 0 126.37 104.82;" xml:space="preserve">
<style type="text/css">
	.st0{fill:#FFFFFF;stroke:#010202;stroke-width:4;stroke-miterlimit:10;}
	.st1{fill:#FFFFFF;stroke:#000000;stroke-width:3.5;stroke-miterlimit:10;}
	.st2{fill:none;stroke:#000000;stroke-width:3.5;stroke-linecap:round;stroke-miterlimit:10;}
	.st3{fill:#FFFFFF;stroke:#715EA6;stroke-width:3.5;stroke-miterlimit:10;}
	.st4{fill:none;stroke:#715EA6;stroke-width:3.5;stroke-linecap:round;stroke-miterlimit:10;}
	.st5{fill:#FFFFFF;stroke:#000000;stroke-width:3.5;stroke-linecap:round;stroke-linejoin:round;stroke-miterlimit:10;}
	.st6{fill:none;stroke:#000000;stroke-width:3.5;stroke-linejoin:round;stroke-miterlimit:10;}
	.st7{stroke:#715EA6;stroke-width:3.5;stroke-linecap:round;stroke-miterlimit:10;}
	.st8{fill:none;stroke:#000000;stroke-width:2;stroke-linecap:round;stroke-miterlimit:10;}
	.st9{fill:none;stroke:#000000;stroke-width:4.1671;stroke-linecap:round;stroke-miterlimit:10;}
	.st10{stroke:#000000;stroke-width:4.1671;stroke-miterlimit:10;}
	.st11{fill:#FFFFFF;stroke:#715EA6;stroke-width:4.1671;stroke-linecap:round;stroke-linejoin:round;stroke-miterlimit:10;}
	.st12{stroke:#715EA6;stroke-width:2.7781;stroke-miterlimit:10;}
	.st13{fill:none;stroke:#715EA6;stroke-width:3.5;stroke-linejoin:round;stroke-miterlimit:10;}
	.st14{fill:#FFFFFF;stroke:#000000;stroke-width:3.5;stroke-linejoin:round;stroke-miterlimit:10;}
	.st15{fill:#FFFFFF;stroke:#715EA6;stroke-width:3.5;stroke-linejoin:bevel;stroke-miterlimit:10;}
	.st16{fill:none;stroke:#715EA6;stroke-width:3.5;stroke-miterlimit:10;}
	.st17{fill:none;stroke:#000000;stroke-width:3.5;stroke-linecap:round;stroke-linejoin:round;stroke-miterlimit:10;}
	.st18{fill:#FFFFFF;stroke:#010202;stroke-width:4;stroke-linecap:round;stroke-miterlimit:10;}
	.st19{fill:#FFFFFF;stroke:#715FA6;stroke-width:4;stroke-linecap:round;stroke-miterlimit:10;}
</style>
<g>
	<path class="st1" d="M101.19,98.48L80.75,76.64H45.96L24.58,97.77c-0.57,0.48-1.16,0.89-1.77,1.25
		c-7.33,4.27-17.34,0.01-18.38-8.81c-0.03-0.23-0.05-0.86-0.06-1.57c-0.04-1.59,0.17-3.19,0.6-4.72l11.26-39.4
		c2.57-7.16,8.8-14.27,16.65-14.27h60.07c7.85,0,14.57,5.65,16.65,14.27l9.96,36.84c0,0.49,1.87,6.43,1.87,8.63
		C121.41,99.59,108.99,104.08,101.19,98.48z"/>
	<line class="st2" x1="62.92" y1="27.87" x2="62.92" y2="3.48"/>
	<circle class="st3" cx="45.16" cy="74.66" r="8.33"/>
	<circle class="st3" cx="80.06" cy="74.66" r="8.33"/>
	<line class="st4" x1="38.72" y1="43.38" x2="38.72" y2="60.83"/>
	<line class="st4" x1="47.44" y1="52.11" x2="30" y2="52.11"/>
	<circle class="st4" cx="76.1" cy="46.2" r="5.95"/>
	<circle class="st4" cx="94.26" cy="54.88" r="5.95"/>
</g>
</svg>
