<?xml version="1.0" encoding="utf-8"?>
<!-- Generator: Adobe Illustrator 24.1.2, SVG Export Plug-In . SVG Version: 6.00 Build 0)  -->
<svg version="1.1" id="Layer_1" xmlns="http://www.w3.org/2000/svg" xmlns:xlink="http://www.w3.org/1999/xlink" x="0px" y="0px"
	 viewBox="0 0 113.27 115.4" style="enable-background:new 0 0 113.27 115.4;" xml:space="preserve">
<style type="text/css">
	.st0{fill:#FFFFFF;stroke:#010202;stroke-width:4;stroke-miterlimit:10;}
	.st1{fill:#FFFFFF;stroke:#000000;stroke-width:3.5;stroke-miterlimit:10;}
	.st2{fill:none;stroke:#000000;stroke-width:3.5;stroke-linecap:round;stroke-miterlimit:10;}
	.st3{fill:#FFFFFF;stroke:#715EA6;stroke-width:3.5;stroke-miterlimit:10;}
	.st4{fill:none;stroke:#715EA6;stroke-width:3.5;stroke-linecap:round;stroke-miterlimit:10;}
	.st5{fill:#FFFFFF;stroke:#000000;stroke-width:3.5;stroke-linecap:round;stroke-linejoin:round;stroke-miterlimit:10;}
	.st6{fill:none;stroke:#000000;stroke-width:3.5;stroke-linejoin:round;stroke-miterlimit:10;}
	.st7{fill:#715EA6;}
	.st8{stroke:#715EA6;stroke-width:3.5;stroke-linecap:round;stroke-miterlimit:10;}
	.st9{fill:none;stroke:#000000;stroke-width:2;stroke-linecap:round;stroke-miterlimit:10;}
	.st10{fill:none;stroke:#000000;stroke-width:4.1671;stroke-linecap:round;stroke-miterlimit:10;}
	.st11{stroke:#000000;stroke-width:4.1671;stroke-miterlimit:10;}
	.st12{fill:#FFFFFF;stroke:#715EA6;stroke-width:4.1671;stroke-linecap:round;stroke-linejoin:round;stroke-miterlimit:10;}
	.st13{stroke:#715EA6;stroke-width:2.7781;stroke-miterlimit:10;}
	.st14{fill:none;stroke:#715EA6;stroke-width:3.5;stroke-linejoin:round;stroke-miterlimit:10;}
	.st15{fill:#FFFFFF;stroke:#000000;stroke-width:3.5;stroke-linejoin:round;stroke-miterlimit:10;}
	.st16{fill:#FFFFFF;stroke:#715EA6;stroke-width:3.5;stroke-linejoin:bevel;stroke-miterlimit:10;}
	.st17{fill:none;stroke:#715EA6;stroke-width:3.5;stroke-miterlimit:10;}
	.st18{fill:none;stroke:#000000;stroke-width:3.5;stroke-linecap:round;stroke-linejoin:round;stroke-miterlimit:10;}
	.st19{fill:#FFFFFF;stroke:#010202;stroke-width:4;stroke-linecap:round;stroke-miterlimit:10;}
	.st20{fill:#FFFFFF;stroke:#715FA6;stroke-width:4;stroke-linecap:round;stroke-miterlimit:10;}
</style>
<g>
	<path class="st5" d="M101.96,91.1h-71.5c5.28,0,9.57,5.05,9.57,11.28c0,6.23-4.28,11.28-9.57,11.28h71.5
		c5.28,0,9.57-5.05,9.57-11.28C111.52,96.15,107.24,91.1,101.96,91.1z"/>
	<path class="st6" d="M40.02,102.38c0,6.23-4.28,11.28-9.57,11.28s-9.57-5.05-9.57-11.28V14.01"/>
	<path class="st1" d="M101.96,13.03c0-6.23-4.28-11.28-9.57-11.28"/>
	<path class="st1" d="M1.75,13.03c0-6.23,4.28-11.28,9.57-11.28s9.57,5.05,9.57,11.28H1.75z"/>
	<line class="st1" x1="101.96" y1="91.1" x2="101.96" y2="13.03"/>
	<line class="st1" x1="11.32" y1="1.75" x2="92.39" y2="1.75"/>
	<g>
		<path class="st7" d="M47.99,21.29h-8.14v5.22h6.8c0.63,0,1.1,0.14,1.41,0.42c0.31,0.28,0.47,0.66,0.47,1.13
			c0,0.47-0.16,0.85-0.47,1.13s-0.78,0.42-1.41,0.42h-6.8v6.72c0,0.85-0.19,1.49-0.58,1.9c-0.39,0.41-0.88,0.62-1.48,0.62
			c-0.61,0-1.11-0.21-1.5-0.63c-0.39-0.42-0.58-1.05-0.58-1.89V20.64c0-0.59,0.09-1.08,0.26-1.45c0.18-0.38,0.45-0.65,0.83-0.82
			c0.38-0.17,0.85-0.26,1.44-0.26h9.74c0.66,0,1.15,0.15,1.47,0.44c0.32,0.29,0.48,0.67,0.48,1.15c0,0.48-0.16,0.87-0.48,1.16
			C49.14,21.15,48.65,21.29,47.99,21.29z"/>
		<path class="st7" d="M63.92,36.19l-0.97-2.56h-8.29l-0.97,2.61c-0.38,1.02-0.71,1.71-0.97,2.07c-0.27,0.36-0.71,0.54-1.32,0.54
			c-0.52,0-0.98-0.19-1.38-0.57c-0.4-0.38-0.6-0.81-0.6-1.29c0-0.28,0.05-0.57,0.14-0.86s0.25-0.71,0.46-1.24l5.22-13.24
			c0.15-0.38,0.33-0.84,0.54-1.37c0.21-0.53,0.43-0.98,0.67-1.33s0.55-0.64,0.93-0.86s0.86-0.33,1.43-0.33
			c0.58,0,1.05,0.11,1.44,0.33s0.7,0.5,0.93,0.84c0.24,0.34,0.44,0.71,0.6,1.11c0.16,0.39,0.37,0.92,0.62,1.58l5.33,13.16
			c0.42,1,0.63,1.73,0.63,2.18c0,0.47-0.2,0.91-0.59,1.3c-0.39,0.39-0.87,0.59-1.43,0.59c-0.33,0-0.6-0.06-0.83-0.17
			c-0.23-0.12-0.43-0.27-0.58-0.47c-0.16-0.2-0.33-0.51-0.51-0.92C64.2,36.87,64.05,36.5,63.92,36.19z M55.74,30.53h6.09l-3.07-8.42
			L55.74,30.53z"/>
		<path class="st7" d="M87.38,35.97c0.6,0.41,1.26,0.8,1.98,1.19s1.19,0.69,1.42,0.92c0.23,0.23,0.35,0.55,0.35,0.97
			c0,0.3-0.14,0.59-0.41,0.89c-0.27,0.3-0.61,0.45-1,0.45c-0.32,0-0.7-0.1-1.15-0.31c-0.45-0.2-0.98-0.5-1.59-0.89
			c-0.61-0.39-1.27-0.84-2-1.36c-1.34,0.69-3,1.03-4.95,1.03c-1.59,0-3.01-0.25-4.26-0.76c-1.26-0.51-2.31-1.23-3.17-2.18
			c-0.85-0.95-1.5-2.08-1.93-3.39c-0.43-1.31-0.65-2.73-0.65-4.27c0-1.57,0.22-3,0.67-4.31s1.1-2.42,1.95-3.34
			c0.85-0.92,1.89-1.62,3.12-2.11c1.22-0.49,2.61-0.73,4.17-0.73c2.11,0,3.93,0.43,5.45,1.29c1.52,0.86,2.66,2.08,3.44,3.66
			s1.17,3.44,1.17,5.57C90.01,31.51,89.14,34.07,87.38,35.97z M84.14,33.71c0.57-0.66,1-1.44,1.27-2.34s0.41-1.94,0.41-3.13
			c0-1.49-0.24-2.79-0.72-3.88c-0.48-1.09-1.17-1.92-2.07-2.48c-0.89-0.56-1.92-0.84-3.08-0.84c-0.83,0-1.59,0.16-2.29,0.47
			c-0.7,0.31-1.3,0.76-1.81,1.36c-0.51,0.59-0.9,1.35-1.2,2.27c-0.29,0.92-0.44,1.96-0.44,3.11c0,2.35,0.55,4.15,1.64,5.42
			s2.48,1.9,4.15,1.9c0.69,0,1.39-0.14,2.11-0.43c-0.44-0.32-0.98-0.65-1.63-0.97s-1.1-0.58-1.34-0.75
			c-0.24-0.18-0.36-0.43-0.36-0.75c0-0.28,0.12-0.52,0.35-0.74c0.23-0.21,0.49-0.32,0.77-0.32C80.75,31.6,82.16,32.3,84.14,33.71z"
			/>
	</g>
	<line class="st8" x1="38.02" y1="54.72" x2="64.17" y2="54.72"/>
	<line class="st8" x1="57.03" y1="69.21" x2="88.68" y2="69.21"/>
</g>
</svg>
