<?xml version="1.0" encoding="utf-8"?>
<!-- Generator: Adobe Illustrator 24.1.2, SVG Export Plug-In . SVG Version: 6.00 Build 0)  -->
<svg version="1.1" id="Layer_1" xmlns="http://www.w3.org/2000/svg" xmlns:xlink="http://www.w3.org/1999/xlink" x="0px" y="0px"
	 viewBox="0 0 114.12 126.37" style="enable-background:new 0 0 114.12 126.37;" xml:space="preserve">
<style type="text/css">
	.st0{fill:#FFFFFF;stroke:#010202;stroke-width:4;stroke-miterlimit:10;}
	.st1{fill:#FFFFFF;stroke:#000000;stroke-width:3.5;stroke-miterlimit:10;}
	.st2{fill:none;stroke:#000000;stroke-width:3.5;stroke-linecap:round;stroke-miterlimit:10;}
	.st3{fill:#FFFFFF;stroke:#715EA6;stroke-width:3.5;stroke-miterlimit:10;}
	.st4{fill:none;stroke:#715EA6;stroke-width:3.5;stroke-linecap:round;stroke-miterlimit:10;}
	.st5{fill:#FFFFFF;stroke:#000000;stroke-width:3.5;stroke-linecap:round;stroke-linejoin:round;stroke-miterlimit:10;}
	.st6{fill:none;stroke:#000000;stroke-width:3.5;stroke-linejoin:round;stroke-miterlimit:10;}
	.st7{stroke:#715EA6;stroke-width:3.5;stroke-linecap:round;stroke-miterlimit:10;}
	.st8{fill:none;stroke:#000000;stroke-width:2;stroke-linecap:round;stroke-miterlimit:10;}
	.st9{fill:none;stroke:#000000;stroke-width:4.1671;stroke-linecap:round;stroke-miterlimit:10;}
	.st10{stroke:#000000;stroke-width:4.1671;stroke-miterlimit:10;}
	.st11{fill:#FFFFFF;stroke:#715EA6;stroke-width:4.1671;stroke-linecap:round;stroke-linejoin:round;stroke-miterlimit:10;}
	.st12{stroke:#715EA6;stroke-width:2.7781;stroke-miterlimit:10;}
	.st13{fill:none;stroke:#715EA6;stroke-width:3.5;stroke-linejoin:round;stroke-miterlimit:10;}
	.st14{fill:#FFFFFF;stroke:#000000;stroke-width:3.5;stroke-linejoin:round;stroke-miterlimit:10;}
	.st15{fill:#FFFFFF;stroke:#715EA6;stroke-width:3.5;stroke-linejoin:bevel;stroke-miterlimit:10;}
	.st16{fill:none;stroke:#715EA6;stroke-width:3.5;stroke-miterlimit:10;}
	.st17{fill:none;stroke:#000000;stroke-width:3.5;stroke-linecap:round;stroke-linejoin:round;stroke-miterlimit:10;}
	.st18{fill:#FFFFFF;stroke:#010202;stroke-width:4;stroke-linecap:round;stroke-miterlimit:10;}
	.st19{fill:#FFFFFF;stroke:#715FA6;stroke-width:4;stroke-linecap:round;stroke-miterlimit:10;}
</style>
<g>
	<path class="st9" d="M74.02,80.74v31.97c0,4.5-3.68,8.19-8.19,8.19h-53.2c-4.5,0-8.19-3.68-8.19-8.19V13.47
		c0-4.5,3.68-8.19,8.19-8.19h53.2c4.5,0,8.19,3.68,8.19,8.19v27.11"/>
	<line class="st10" x1="4.45" y1="96.85" x2="74.02" y2="96.85"/>
	<line class="st10" x1="4.45" y1="24.98" x2="74.02" y2="24.98"/>
	<circle cx="39.23" cy="108.62" r="3.07"/>
	<path class="st11" d="M102.98,43.9H69.76l-9.21,6.39l0.17-6.39h-3.9c-3.38,0-6.14-2.76-6.14-6.14V11.42c0-3.38,2.76-6.14,6.14-6.14
		h46.16c3.38,0,6.14,2.76,6.14,6.14v26.35C109.12,41.14,106.36,43.9,102.98,43.9z"/>
	<circle class="st12" cx="63.87" cy="24.98" r="1.83"/>
	<circle class="st12" cx="79.9" cy="24.98" r="1.83"/>
	<circle class="st12" cx="95.34" cy="24.98" r="1.83"/>
</g>
</svg>
